<svg width="160" height="57" viewBox="0 0 160 57" fill="none" xmlns="http://www.w3.org/2000/svg">
<g clip-path="url(#clip0_143_8542)">
<path d="M14.7613 32.2345L0 48.9091V3.52954L16.6568 22.3438H9.2119L16.3013 27.4936L14.7613 32.2345Z" fill="white"/>
<path d="M40.3364 27.5153C40.3479 27.5262 40.3594 27.5371 40.3708 27.5485C42.217 29.3322 42.7376 32.0877 41.834 34.4906C40.5446 37.9169 38.5384 40.99 35.9991 43.5328C31.382 48.1453 25.007 51 17.9663 51H1.70459L17.9216 32.6828L20.6828 30.6761L27.7768 35.8305L25.0643 27.4935C26.2586 26.6277 27.4528 25.7574 28.6471 24.8922C30.3339 24.8831 31.8481 24.879 32.6158 24.8699C35.932 24.9456 38.6004 25.86 40.3359 27.5159L40.3364 27.5153Z" fill="white"/>
<path d="M43.4663 25.5C43.4663 26.0103 43.4531 26.5165 43.4222 27.0182C43.0535 26.5119 42.6407 26.0372 42.1746 25.5935C39.9546 23.4669 36.6699 22.2996 32.6387 22.2061C31.6176 22.2153 29.4246 22.2239 27.2269 22.2325C25.8417 22.2371 24.4565 22.2417 23.3603 22.2503L20.6834 14.0062L18.5746 20.4924L0.426025 0H17.9663C32.0528 0 43.4663 11.4135 43.4663 25.5Z" fill="white"/>
<path d="M57.1263 30.8472C57.5454 31.0335 57.8665 31.3001 58.0895 31.6481C58.3131 31.9956 58.4249 32.4084 58.4249 32.886C58.4249 33.3636 58.3126 33.7689 58.0895 34.1198C57.8665 34.4701 57.5454 34.739 57.1263 34.9248C56.7072 35.1111 56.2147 35.2046 55.6505 35.2046H54.1799V37.0851H52.969V30.5674H55.6505C56.2153 30.5674 56.7078 30.6608 57.1263 30.8466V30.8472ZM56.7955 33.8458C57.069 33.6222 57.2054 33.3022 57.2054 32.8866C57.2054 32.4709 57.069 32.151 56.7955 31.9279C56.5226 31.7043 56.1218 31.5925 55.5943 31.5925H54.1799V34.1812H55.5943C56.1218 34.1812 56.5226 34.0694 56.7955 33.8463V33.8458Z" fill="white"/>
<path d="M63.0248 36.7456C62.4904 36.4566 62.0713 36.0564 61.7674 35.5444C61.463 35.0324 61.311 34.4597 61.311 33.8261C61.311 33.1926 61.4624 32.6204 61.7674 32.1084C62.0713 31.5964 62.4904 31.1962 63.0248 30.9072C63.558 30.6183 64.1577 30.4744 64.821 30.4744C65.4844 30.4744 66.0841 30.6188 66.6185 30.9072C67.1517 31.1962 67.5708 31.5947 67.8758 32.1038C68.1797 32.6124 68.3322 33.1868 68.3322 33.8261C68.3322 34.4654 68.1797 35.0399 67.8758 35.549C67.5714 36.0582 67.1523 36.4566 66.6185 36.7456C66.0841 37.0346 65.4855 37.1785 64.821 37.1785C64.1565 37.1785 63.558 37.034 63.0248 36.7456ZM65.9947 35.8237C66.3415 35.6281 66.615 35.3552 66.814 35.0043C67.0124 34.654 67.1115 34.2613 67.1115 33.8267C67.1115 33.3921 67.0124 32.9994 66.814 32.6491C66.6156 32.2982 66.3421 32.0253 65.9947 31.8297C65.6467 31.6342 65.2556 31.5368 64.821 31.5368C64.3864 31.5368 63.996 31.6342 63.648 31.8297C63.3 32.0253 63.0276 32.2982 62.8287 32.6491C62.6291 32.9994 62.53 33.3921 62.53 33.8267C62.53 34.2613 62.6291 34.654 62.8287 35.0043C63.027 35.3552 63.3 35.6281 63.648 35.8237C63.996 36.0192 64.387 36.1166 64.821 36.1166C65.2551 36.1166 65.6472 36.0192 65.9947 35.8237Z" fill="white"/>
<path d="M75.9296 37.0856L74.5983 35.177C74.5421 35.1833 74.4584 35.1861 74.3466 35.1861H72.8759V37.0856H71.665V30.5679H74.3466C74.9113 30.5679 75.4038 30.6613 75.8223 30.8471C76.2415 31.0334 76.5625 31.3 76.7856 31.648C77.0092 31.9955 77.121 32.4083 77.121 32.8859C77.121 33.3635 77.0011 33.7987 76.7626 34.1524C76.523 34.5062 76.1807 34.7699 75.7335 34.9436L77.2322 37.0851H75.929L75.9296 37.0856ZM75.4915 31.9273C75.2186 31.7037 74.8179 31.5919 74.2904 31.5919H72.8759V34.1897H74.2904C74.8179 34.1897 75.2186 34.0762 75.4915 33.8497C75.765 33.6232 75.9015 33.3016 75.9015 32.8859C75.9015 32.4702 75.765 32.1503 75.4915 31.9273Z" fill="white"/>
<path d="M91.095 30.5679L88.2558 37.0856H87.0638L84.2148 30.5679H85.5272L87.6968 35.5955L89.8852 30.5679H91.0955H91.095Z" fill="white"/>
<path d="M98.7218 36.0708V37.0856H93.8335V30.5679H98.5911V31.5827H95.0444V33.2769H98.1915V34.2734H95.0444V36.0702H98.7218V36.0708Z" fill="white"/>
<path d="M107.911 30.5679V37.0856H106.915L103.321 32.672V37.0856H102.12V30.5679H103.116L106.71 34.9815V30.5679H107.911Z" fill="white"/>
<path d="M116.599 36.0708V37.0856H111.71V30.5679H116.468V31.5827H112.921V33.2769H116.068V34.2734H112.921V36.0702H116.599V36.0708Z" fill="white"/>
<path d="M125.063 36.0616V37.0856H119.504V36.2755L123.34 31.5919H119.57V30.5679H124.942V31.378L121.105 36.0616H125.063H125.063Z" fill="white"/>
<path d="M128.917 36.4199C128.413 35.9142 128.162 35.1895 128.162 34.2458V30.5684H129.373V34.1993C129.373 35.4785 129.925 36.1177 131.03 36.1177C132.135 36.1177 132.678 35.4785 132.678 34.1993V30.5684H133.87V34.2458C133.87 35.1895 133.62 35.9142 133.121 36.4199C132.621 36.9256 131.921 37.179 131.021 37.179C130.121 37.179 129.419 36.9262 128.917 36.4199Z" fill="white"/>
<path d="M142.502 36.0708V37.0856H137.613V30.5679H142.371V31.5827H138.824V33.2769H141.971V34.2734H138.824V36.0702H142.502V36.0708Z" fill="white"/>
<path d="M145.9 30.5679H147.111V36.0616H150.518V37.0856H145.9V30.5679Z" fill="white"/>
<path d="M157.799 35.5772H154.54L153.897 37.0856H152.65L155.583 30.5679H156.775L159.717 37.0856H158.451L157.799 35.5772H157.799ZM157.398 34.6277L156.169 31.7788L154.95 34.6277H157.398Z" fill="white"/>
<path d="M52.969 16.7136H57.4113C58.4731 16.7136 59.4122 16.916 60.2275 17.3214C61.0417 17.7267 61.6752 18.2972 62.1276 19.0328C62.5788 19.769 62.8053 20.6261 62.8053 21.6037C62.8053 22.5812 62.5788 23.4389 62.1276 24.1745C61.6752 24.9107 61.0417 25.4812 60.2275 25.8865C59.4122 26.2919 58.4731 26.4943 57.4113 26.4943H52.969V16.7136ZM57.3 24.6355C58.2782 24.6355 59.0579 24.3632 59.6398 23.8185C60.2218 23.2732 60.513 22.5353 60.513 21.6037C60.513 20.672 60.2218 19.9347 59.6398 19.3894C59.0579 18.8447 58.2776 18.5718 57.3 18.5718H55.2326V24.6361H57.3V24.6355Z" fill="white"/>
<path d="M64.5103 16.7136H66.7744V26.4943H64.5103V16.7136Z" fill="white"/>
<path d="M70.0637 26.3474C69.3419 26.1376 68.7617 25.8653 68.3242 25.5299L69.0931 23.8253C69.5128 24.1326 70.0104 24.3797 70.5883 24.5661C71.1657 24.7518 71.7425 24.8453 72.3198 24.8453C72.9637 24.8453 73.4379 24.7495 73.7457 24.5586C74.0525 24.3683 74.2061 24.1143 74.2061 23.7972C74.2061 23.5639 74.115 23.3706 73.9344 23.2176C73.7526 23.0639 73.5193 22.9406 73.2349 22.8472C72.9505 22.7537 72.5664 22.6517 72.0831 22.5399C71.3371 22.3633 70.7277 22.1861 70.2524 22.009C69.7771 21.8324 69.37 21.548 69.03 21.157C68.6889 20.7659 68.5197 20.2436 68.5197 19.5917C68.5197 19.0236 68.6734 18.5093 68.9813 18.0483C69.288 17.5873 69.7513 17.2215 70.3711 16.9515C70.9908 16.6815 71.7482 16.5461 72.6421 16.5461C73.2664 16.5461 73.8759 16.6207 74.4727 16.7697C75.0685 16.9188 75.5908 17.1332 76.0374 17.413L75.3391 19.1313C74.4349 18.6199 73.5313 18.3631 72.6283 18.3631C71.9948 18.3631 71.5263 18.4651 71.2242 18.6698C70.9215 18.8751 70.7695 19.1451 70.7695 19.4805C70.7695 19.8159 70.9444 20.0647 71.2936 20.2282C71.6427 20.3916 72.1759 20.5515 72.8932 20.7103C73.6391 20.8869 74.2486 21.0641 74.7239 21.2407C75.1992 21.4178 75.6062 21.6971 75.9462 22.0795C76.2862 22.4613 76.4565 22.9785 76.4565 23.6304C76.4565 24.1894 76.2994 24.6991 75.9881 25.16C75.6756 25.621 75.2083 25.9868 74.584 26.2569C73.9596 26.5269 73.2011 26.6622 72.3067 26.6622C71.5332 26.6622 70.7862 26.5579 70.0643 26.348L70.0637 26.3474Z" fill="white"/>
<path d="M85.58 24.6772V26.4935H78.0073V16.7129H85.3983V18.5292H80.2566V20.6529H84.798V22.4136H80.2566V24.6772H85.58Z" fill="white"/>
<path d="M96.3526 16.7136V26.4942H94.4933L89.6175 20.5561V26.4942H87.3821V16.7136H89.2535L94.1166 22.6517V16.7136H96.352H96.3526ZM92.2509 15.8123C92.06 15.7142 91.8484 15.5812 91.6151 15.4138C91.466 15.3026 91.3433 15.2183 91.2453 15.1627C91.1472 15.1071 91.0509 15.0784 90.9586 15.0784C90.7631 15.0784 90.6037 15.146 90.4833 15.2813C90.3617 15.4161 90.297 15.6093 90.2878 15.861H89.1835C89.2019 15.2366 89.3584 14.7413 89.6519 14.3726C89.9455 14.0045 90.3342 13.821 90.8187 13.821C91.0607 13.821 91.2768 13.8698 91.4677 13.9678C91.6586 14.0659 91.8748 14.2035 92.1179 14.3801C92.2658 14.4913 92.3897 14.5756 92.4877 14.6312C92.5857 14.6868 92.6809 14.7149 92.7744 14.7149C92.9607 14.7149 93.1167 14.6478 93.2428 14.5125C93.3678 14.3778 93.436 14.1937 93.4452 13.9604H94.5494C94.5299 14.5664 94.3746 15.0503 94.081 15.4138C93.7875 15.7773 93.3987 15.959 92.9143 15.959C92.6631 15.959 92.4413 15.9103 92.2503 15.8123H92.2509Z" fill="white"/>
<path d="M105.114 24.398H100.573L99.7062 26.4935H97.3865L101.746 16.7129H103.982L108.355 26.4935H105.981L105.115 24.398H105.114ZM104.401 22.6797L102.85 18.9346L101.299 22.6797H104.401Z" fill="white"/>
<path d="M109.375 16.7136H113.818C114.88 16.7136 115.819 16.916 116.634 17.3214C117.448 17.7267 118.082 18.2972 118.534 19.0328C118.985 19.769 119.212 20.6261 119.212 21.6037C119.212 22.5812 118.985 23.4389 118.534 24.1745C118.082 24.9107 117.448 25.4812 116.634 25.8865C115.819 26.2919 114.88 26.4943 113.818 26.4943H109.375V16.7136ZM113.707 24.6355C114.685 24.6355 115.464 24.3632 116.046 23.8185C116.628 23.2732 116.92 22.5353 116.92 21.6037C116.92 20.672 116.628 19.9347 116.046 19.3894C115.464 18.8447 114.684 18.5718 113.707 18.5718H111.639V24.6361H113.707V24.6355Z" fill="white"/>
<path d="M122.907 26.0052C122.092 25.5671 121.454 24.964 120.992 24.1957C120.532 23.4274 120.301 22.5634 120.301 21.6036C120.301 20.6438 120.532 19.7804 120.992 19.0121C121.454 18.2432 122.092 17.6401 122.907 17.2026C123.723 16.7646 124.638 16.5461 125.653 16.5461C126.669 16.5461 127.581 16.7652 128.391 17.2026C129.202 17.6407 129.84 18.2438 130.305 19.0121C130.771 19.7804 131.005 20.6444 131.005 21.6036C131.005 22.5628 130.771 23.4274 130.305 24.1957C129.84 24.9645 129.202 25.5677 128.391 26.0052C127.581 26.4432 126.667 26.6616 125.653 26.6616C124.639 26.6616 123.722 26.4426 122.907 26.0052ZM127.218 24.335C127.683 24.0695 128.05 23.6992 128.315 23.2239C128.581 22.7491 128.714 22.2091 128.714 21.603C128.714 20.997 128.581 20.4575 128.315 19.9828C128.05 19.5075 127.683 19.1371 127.218 18.8716C126.752 18.6062 126.231 18.4731 125.654 18.4731C125.077 18.4731 124.554 18.6062 124.088 18.8716C123.623 19.1371 123.257 19.5075 122.992 19.9828C122.726 20.4575 122.593 20.9982 122.593 21.603C122.593 22.2079 122.726 22.7491 122.992 23.2239C123.257 23.6992 123.623 24.0695 124.088 24.335C124.554 24.6005 125.076 24.7329 125.654 24.7329C126.232 24.7329 126.752 24.6005 127.218 24.335Z" fill="white"/>
<path d="M138.941 26.4943L137.054 23.7698H134.974V26.4943H132.709V16.7136H136.943C137.809 16.7136 138.561 16.8581 139.2 17.1471C139.838 17.436 140.329 17.8454 140.674 18.3763C141.018 18.9072 141.191 19.5362 141.191 20.2626C141.191 20.989 141.016 21.6157 140.667 22.142C140.318 22.6678 139.821 23.0708 139.179 23.3501L141.372 26.4943H138.941H138.941ZM138.368 18.9978C138.013 18.7043 137.496 18.5575 136.817 18.5575H134.973V21.9666H136.817C137.496 21.9666 138.013 21.8175 138.368 21.52C138.722 21.2218 138.898 20.8033 138.898 20.2626C138.898 19.722 138.722 19.2914 138.368 18.9984V18.9978Z" fill="white"/>
<path d="M150.551 24.6772V26.4935H142.979V16.7129H150.369V18.5292H145.228V20.6529H149.769V22.4136H145.228V24.6772H150.551Z" fill="white"/>
<path d="M153.324 26.3474C152.603 26.1376 152.022 25.8653 151.585 25.5299L152.354 23.8253C152.774 24.1326 153.271 24.3797 153.849 24.5661C154.426 24.7518 155.003 24.8453 155.581 24.8453C156.224 24.8453 156.699 24.7495 157.006 24.5586C157.313 24.3683 157.467 24.1143 157.467 23.7972C157.467 23.5639 157.376 23.3706 157.195 23.2176C157.013 23.0639 156.78 22.9406 156.496 22.8472C156.211 22.7537 155.827 22.6517 155.344 22.5399C154.598 22.3633 153.988 22.1861 153.513 22.009C153.038 21.8324 152.631 21.548 152.291 21.157C151.95 20.7659 151.78 20.2436 151.78 19.5917C151.78 19.0236 151.934 18.5093 152.242 18.0483C152.549 17.5873 153.012 17.2215 153.632 16.9515C154.252 16.6815 155.009 16.5461 155.903 16.5461C156.527 16.5461 157.137 16.6207 157.734 16.7697C158.329 16.9188 158.852 17.1332 159.298 17.413L158.6 19.1313C157.696 18.6199 156.792 18.3631 155.889 18.3631C155.256 18.3631 154.787 18.4651 154.485 18.6698C154.182 18.8751 154.03 19.1451 154.03 19.4805C154.03 19.8159 154.205 20.0647 154.554 20.2282C154.903 20.3916 155.437 20.5515 156.154 20.7103C156.9 20.8869 157.509 21.0641 157.985 21.2407C158.46 21.4178 158.867 21.6971 159.207 22.0795C159.547 22.4613 159.717 22.9785 159.717 23.6304C159.717 24.1894 159.56 24.6991 159.249 25.16C158.936 25.621 158.469 25.9868 157.845 26.2569C157.22 26.5269 156.462 26.6622 155.567 26.6622C154.794 26.6622 154.047 26.5579 153.325 26.348L153.324 26.3474Z" fill="white"/>
</g>
<defs>
<clipPath id="clip0_143_8542">
<rect width="159.717" height="51" fill="white"/>
</clipPath>
</defs>
</svg>
