<svg width="183" height="40" viewBox="0 0 183 40" fill="none" xmlns="http://www.w3.org/2000/svg">
<path d="M7.11929 29.1568C7.83702 29.4759 8.38684 29.9325 8.76878 30.5284C9.15169 31.1234 9.34316 31.8303 9.34316 32.6482C9.34316 33.4661 9.15071 34.1602 8.76878 34.7611C8.38684 35.361 7.83702 35.8215 7.11929 36.1396C6.40157 36.4587 5.55818 36.6188 4.59205 36.6188H2.07364V39.8392H0V28.6777H4.59205C5.55916 28.6777 6.40255 28.8377 7.11929 29.1558V29.1568ZM6.55277 34.2918C7.02111 33.9089 7.25479 33.361 7.25479 32.6492C7.25479 31.9374 7.02111 31.3895 6.55277 31.0076C6.08542 30.6247 5.39912 30.4332 4.49583 30.4332H2.07364V34.8662H4.49583C5.39912 34.8662 6.08542 34.6747 6.55277 34.2928V34.2918Z" fill="#0B1F5B"/>
<path d="M17.2204 39.2579C16.3053 38.7631 15.5876 38.0778 15.0672 37.201C14.5458 36.3242 14.2856 35.3433 14.2856 34.2584C14.2856 33.1735 14.5448 32.1936 15.0672 31.3168C15.5876 30.4401 16.3053 29.7547 17.2204 29.2599C18.1335 28.765 19.1605 28.5186 20.2964 28.5186C21.4324 28.5186 22.4594 28.766 23.3745 29.2599C24.2876 29.7547 25.0053 30.4371 25.5277 31.309C26.048 32.1799 26.3092 33.1637 26.3092 34.2584C26.3092 35.3532 26.048 36.337 25.5277 37.2088C25.0063 38.0807 24.2886 38.7631 23.3745 39.2579C22.4594 39.7528 21.4344 39.9992 20.2964 39.9992C19.1585 39.9992 18.1335 39.7518 17.2204 39.2579ZM22.3063 37.6791C22.9003 37.3443 23.3686 36.877 23.7093 36.2761C24.049 35.6762 24.2189 35.0036 24.2189 34.2594C24.2189 33.5152 24.049 32.8426 23.7093 32.2427C23.3696 31.6418 22.9013 31.1745 22.3063 30.8397C21.7103 30.5049 21.0407 30.3379 20.2964 30.3379C19.5522 30.3379 18.8836 30.5049 18.2876 30.8397C17.6916 31.1745 17.2253 31.6418 16.8846 32.2427C16.5429 32.8426 16.373 33.5152 16.373 34.2594C16.373 35.0036 16.5429 35.6762 16.8846 36.2761C17.2243 36.877 17.6916 37.3443 18.2876 37.6791C18.8836 38.0139 19.5532 38.1809 20.2964 38.1809C21.0397 38.1809 21.7113 38.0139 22.3063 37.6791Z" fill="#0B1F5B"/>
<path d="M39.3195 39.8402L37.0397 36.5716C36.9435 36.5824 36.8001 36.5873 36.6087 36.5873H34.0902V39.8402H32.0166V28.6786H36.6087C37.5758 28.6786 38.4192 28.8387 39.1359 29.1568C39.8536 29.4759 40.4035 29.9324 40.7854 30.5284C41.1683 31.1234 41.3598 31.8303 41.3598 32.6482C41.3598 33.4661 41.1546 34.2113 40.7461 34.8171C40.3357 35.4229 39.7496 35.8745 38.9837 36.172L41.5502 39.8392H39.3185L39.3195 39.8402ZM38.5694 31.0066C38.102 30.6237 37.4157 30.4322 36.5124 30.4322H34.0902V34.8809H36.5124C37.4157 34.8809 38.102 34.6865 38.5694 34.2987C39.0377 33.9108 39.2714 33.36 39.2714 32.6482C39.2714 31.9364 39.0377 31.3885 38.5694 31.0066Z" fill="#0B1F5B"/>
<path d="M65.2901 28.6786L60.428 39.8402H58.3868L53.5081 28.6786H55.7555L59.4707 37.2884L63.2184 28.6786H65.2911H65.2901Z" fill="#0B1F5B"/>
<path d="M78.3504 38.1023V39.8402H69.9792V28.6786H78.1265V30.4165H72.0529V33.3178H77.4422V35.0242H72.0529V38.1013H78.3504V38.1023Z" fill="#0B1F5B"/>
<path d="M94.0874 28.6786V39.8402H92.381L86.2269 32.282V39.8402H84.1699V28.6786H85.8764L92.0305 36.2368V28.6786H94.0874Z" fill="#0B1F5B"/>
<path d="M108.964 38.1023V39.8402H100.593V28.6786H108.74V30.4165H102.667V33.3178H108.056V35.0242H102.667V38.1013H108.964V38.1023Z" fill="#0B1F5B"/>
<path d="M123.459 38.0866V39.8402H113.94V38.4528L120.508 30.4322H114.052V28.6786H123.252V30.066L116.682 38.0866H123.46H123.459Z" fill="#0B1F5B"/>
<path d="M130.059 38.7002C129.197 37.8343 128.767 36.5932 128.767 34.9771V28.6796H130.84V34.8976C130.84 37.0881 131.786 38.1828 133.678 38.1828C135.57 38.1828 136.5 37.0881 136.5 34.8976V28.6796H138.541V34.9771C138.541 36.5932 138.113 37.8343 137.258 38.7002C136.402 39.5662 135.203 40.0002 133.662 40.0002C132.122 40.0002 130.919 39.5672 130.059 38.7002Z" fill="#0B1F5B"/>
<path d="M153.323 38.1023V39.8402H144.951V28.6786H153.099V30.4165H147.025V33.3178H152.414V35.0242H147.025V38.1013H153.323V38.1023Z" fill="#0B1F5B"/>
<path d="M159.142 28.6786H161.215V38.0866H167.051V39.8402H159.142V28.6786Z" fill="#0B1F5B"/>
<path d="M179.519 37.2569H173.938L172.837 39.8402H170.702L175.724 28.6786H177.765L182.804 39.8402H180.636L179.52 37.2569H179.519ZM178.832 35.631L176.727 30.7523L174.64 35.631H178.832Z" fill="#0B1F5B"/>
<path d="M0 4.95343H7.60727C9.42563 4.95343 11.0339 5.30002 12.43 5.99417C13.8242 6.68833 14.9092 7.66526 15.6838 8.92496C16.4566 10.1856 16.8444 11.6535 16.8444 13.3275C16.8444 15.0015 16.4566 16.4704 15.6838 17.7301C14.9092 18.9907 13.8242 19.9677 12.43 20.6618C11.0339 21.356 9.42563 21.7026 7.60727 21.7026H0V4.95343ZM7.41679 18.5195C9.09181 18.5195 10.4271 18.0531 11.4237 17.1203C12.4202 16.1866 12.919 14.923 12.919 13.3275C12.919 11.732 12.4202 10.4694 11.4237 9.53566C10.4271 8.60291 9.09082 8.13556 7.41679 8.13556H3.87629V18.5204H7.41679V18.5195Z" fill="#0B1F5B"/>
<path d="M19.7644 4.95343H23.6417V21.7026H19.7644V4.95343Z" fill="#0B1F5B"/>
<path d="M29.2743 21.4512C28.0382 21.0919 27.0446 20.6255 26.2954 20.0511L27.612 17.1321C28.3307 17.6584 29.183 18.0816 30.1727 18.4007C31.1614 18.7188 32.1491 18.8788 33.1378 18.8788C34.2404 18.8788 35.0524 18.7149 35.5796 18.3879C36.1049 18.0619 36.3681 17.627 36.3681 17.084C36.3681 16.6844 36.212 16.3535 35.9027 16.0914C35.5914 15.8283 35.1918 15.6172 34.7048 15.4571C34.2178 15.2971 33.56 15.1223 32.7323 14.9309C31.455 14.6285 30.4113 14.3251 29.5973 14.0217C28.7834 13.7193 28.0863 13.2323 27.504 12.5627C26.9199 11.8931 26.6302 10.9986 26.6302 9.88225C26.6302 8.90925 26.8933 8.02855 27.4206 7.23915C27.9459 6.44976 28.7392 5.82334 29.8006 5.3609C30.8619 4.89845 32.1589 4.66674 33.6896 4.66674C34.7588 4.66674 35.8025 4.79438 36.8246 5.04966C37.8447 5.30493 38.7392 5.67214 39.504 6.15128L38.3082 9.09384C36.7598 8.21804 35.2124 7.77818 33.666 7.77818C32.5811 7.77818 31.779 7.95295 31.2615 8.30346C30.7431 8.65496 30.4829 9.1174 30.4829 9.69178C30.4829 10.2662 30.7824 10.6923 31.3803 10.9721C31.9783 11.2519 32.8914 11.5258 34.1197 11.7978C35.397 12.1002 36.4407 12.4036 37.2547 12.706C38.0686 13.0094 38.7657 13.4876 39.3479 14.1424C39.9302 14.7963 40.2218 15.682 40.2218 16.7983C40.2218 17.7556 39.9527 18.6284 39.4196 19.4178C38.8845 20.2072 38.0843 20.8337 37.0151 21.2961C35.9459 21.7585 34.6469 21.9903 33.1152 21.9903C31.7907 21.9903 30.5114 21.8116 29.2753 21.4522L29.2743 21.4512Z" fill="#0B1F5B"/>
<path d="M55.8458 18.5911V21.7016H42.8777V4.95245H55.5345V8.0629H46.7294V11.6996H54.5066V14.7148H46.7294V18.5911H55.8458Z" fill="#0B1F5B"/>
<path d="M74.2935 4.95343V21.7026H71.1094L62.7598 11.5337V21.7026H58.9316V4.95343H62.1364L70.4643 15.1223V4.95343H74.2925H74.2935ZM67.2694 3.40999C66.9424 3.24209 66.5802 3.01431 66.1805 2.72761C65.9253 2.53713 65.7151 2.3928 65.5473 2.29756C65.3794 2.20233 65.2144 2.15323 65.0563 2.15323C64.7215 2.15323 64.4486 2.26909 64.2424 2.50081C64.0343 2.73154 63.9233 3.06242 63.9076 3.49344H62.0166C62.048 2.42422 62.316 1.57592 62.8187 0.944595C63.3214 0.314256 63.9871 6.86646e-05 64.8168 6.86646e-05C65.2311 6.86646e-05 65.6013 0.0835245 65.9282 0.251418C66.2552 0.419312 66.6253 0.654953 67.0416 0.957359C67.2949 1.14784 67.507 1.29217 67.6749 1.3874C67.8428 1.48264 68.0058 1.53075 68.1658 1.53075C68.4849 1.53075 68.752 1.41588 68.968 1.18416C69.182 0.953431 69.2988 0.638263 69.3146 0.238656H71.2056C71.1722 1.27646 70.9061 2.10513 70.4034 2.72761C69.9007 3.35009 69.235 3.66134 68.4054 3.66134C67.9753 3.66134 67.5954 3.57788 67.2684 3.40999H67.2694Z" fill="#0B1F5B"/>
<path d="M89.2969 18.113H81.5198L80.0362 21.7016H76.0637L83.5296 4.95245H87.3578L94.8472 21.7016H90.7814L89.2979 18.113H89.2969ZM88.0755 15.1704L85.4196 8.75706L82.7638 15.1704H88.0755Z" fill="#0B1F5B"/>
<path d="M96.595 4.95343H104.202C106.021 4.95343 107.629 5.30002 109.025 5.99417C110.419 6.68833 111.504 7.66526 112.279 8.92496C113.052 10.1856 113.439 11.6535 113.439 13.3275C113.439 15.0015 113.052 16.4704 112.279 17.7301C111.504 18.9907 110.419 19.9677 109.025 20.6618C107.629 21.356 106.021 21.7026 104.202 21.7026H96.595V4.95343ZM104.012 18.5195C105.687 18.5195 107.022 18.0531 108.019 17.1203C109.015 16.1866 109.514 14.923 109.514 13.3275C109.514 11.732 109.015 10.4694 108.019 9.53566C107.022 8.60291 105.686 8.13556 104.012 8.13556H100.471V18.5204H104.012V18.5195Z" fill="#0B1F5B"/>
<path d="M119.768 20.8651C118.372 20.1149 117.279 19.0821 116.489 17.7664C115.701 16.4507 115.305 14.9711 115.305 13.3275C115.305 11.6839 115.701 10.2053 116.489 8.88962C117.279 7.57298 118.372 6.54008 119.768 5.79094C121.165 5.04082 122.732 4.66674 124.47 4.66674C126.209 4.66674 127.771 5.0418 129.16 5.79094C130.548 6.54107 131.641 7.57396 132.437 8.88962C133.235 10.2053 133.635 11.6849 133.635 13.3275C133.635 14.9701 133.235 16.4507 132.437 17.7664C131.641 19.083 130.548 20.1159 129.16 20.8651C127.771 21.6152 126.207 21.9893 124.47 21.9893C122.734 21.9893 121.164 21.6142 119.768 20.8651ZM127.151 18.005C127.947 17.5504 128.574 16.9161 129.028 16.1022C129.484 15.2892 129.711 14.3643 129.711 13.3265C129.711 12.2887 129.484 11.3648 129.028 10.5519C128.574 9.73792 127.947 9.10366 127.151 8.64907C126.353 8.19448 125.459 7.96669 124.471 7.96669C123.484 7.96669 122.588 8.19448 121.79 8.64907C120.994 9.10366 120.366 9.73792 119.913 10.5519C119.457 11.3648 119.229 12.2907 119.229 13.3265C119.229 14.3624 119.457 15.2892 119.913 16.1022C120.366 16.9161 120.994 17.5504 121.79 18.005C122.588 18.4596 123.482 18.6864 124.471 18.6864C125.461 18.6864 126.353 18.4596 127.151 18.005Z" fill="#0B1F5B"/>
<path d="M147.224 21.7026L143.994 17.0369H140.431V21.7026H136.554V4.95343H143.804C145.287 4.95343 146.574 5.20085 147.669 5.6957C148.762 6.19054 149.602 6.89157 150.192 7.80075C150.782 8.70993 151.078 9.78701 151.078 11.031C151.078 12.275 150.779 13.3481 150.181 14.2495C149.583 15.1498 148.731 15.84 147.632 16.3182L151.388 21.7026H147.225H147.224ZM146.244 8.86506C145.637 8.36236 144.751 8.11102 143.589 8.11102H140.43V13.949H143.589C144.751 13.949 145.637 13.6937 146.244 13.1842C146.85 12.6736 147.152 11.9569 147.152 11.031C147.152 10.1051 146.85 9.36776 146.244 8.86604V8.86506Z" fill="#0B1F5B"/>
<path d="M167.108 18.5911V21.7016H154.139V4.95245H166.796V8.0629H157.991V11.6996H165.768V14.7148H157.991V18.5911H167.108Z" fill="#0B1F5B"/>
<path d="M171.857 21.4512C170.62 21.0919 169.627 20.6255 168.878 20.0511L170.194 17.1321C170.913 17.6584 171.765 18.0816 172.755 18.4007C173.744 18.7188 174.731 18.8788 175.72 18.8788C176.823 18.8788 177.635 18.7149 178.162 18.3879C178.687 18.0619 178.95 17.627 178.95 17.084C178.95 16.6844 178.794 16.3535 178.485 16.0914C178.174 15.8283 177.774 15.6172 177.287 15.4571C176.8 15.2971 176.142 15.1223 175.315 14.9309C174.037 14.6285 172.994 14.3251 172.18 14.0217C171.366 13.7193 170.669 13.2323 170.086 12.5627C169.502 11.8931 169.213 10.9986 169.213 9.88225C169.213 8.90925 169.476 8.02855 170.003 7.23915C170.528 6.44976 171.321 5.82334 172.383 5.3609C173.444 4.89845 174.741 4.66674 176.272 4.66674C177.341 4.66674 178.385 4.79438 179.407 5.04966C180.427 5.30493 181.321 5.67214 182.086 6.15128L180.89 9.09384C179.342 8.21804 177.795 7.77818 176.248 7.77818C175.163 7.77818 174.361 7.95295 173.844 8.30346C173.325 8.65496 173.065 9.1174 173.065 9.69178C173.065 10.2662 173.365 10.6923 173.963 10.9721C174.561 11.2519 175.474 11.5258 176.702 11.7978C177.979 12.1002 179.023 12.4036 179.837 12.706C180.651 13.0094 181.348 13.4876 181.93 14.1424C182.512 14.7963 182.804 15.682 182.804 16.7983C182.804 17.7556 182.535 18.6284 182.002 19.4178C181.467 20.2072 180.667 20.8337 179.597 21.2961C178.528 21.7585 177.229 21.9903 175.698 21.9903C174.373 21.9903 173.094 21.8116 171.858 21.4522L171.857 21.4512Z" fill="#0B1F5B"/>
</svg>
